<?xml version="1.0" encoding="UTF-8" standalone="no"?>
<svg width="63px" height="60px" viewBox="0 0 63 60" version="1.1" xmlns="http://www.w3.org/2000/svg" xmlns:xlink="http://www.w3.org/1999/xlink">
    <!-- Generator: Sketch 40.3 (33839) - http://www.bohemiancoding.com/sketch -->
    <title>computer</title>
    <desc>Created with Sketch.</desc>
    <defs>
        <polygon id="path-1" points="1 60 61 60 61 3.55271368e-15 1 3.55271368e-15"></polygon>
        <mask id="mask-2" maskContentUnits="userSpaceOnUse" maskUnits="objectBoundingBox" x="0" y="0" width="60" height="60" fill="white">
            <use xlink:href="#path-1"></use>
        </mask>
        <polygon id="path-3" points="6 39 56 39 56 5 6 5"></polygon>
        <mask id="mask-4" maskContentUnits="userSpaceOnUse" maskUnits="objectBoundingBox" x="0" y="0" width="50" height="34" fill="white">
            <use xlink:href="#path-3"></use>
        </mask>
        <polygon id="path-5" points="1.42108547e-14 49 1.42108547e-14 56.625 62.459554 56.625 62.459554 49"></polygon>
        <mask id="mask-6" maskContentUnits="userSpaceOnUse" maskUnits="objectBoundingBox" x="0" y="0" width="62.459554" height="7.625" fill="white">
            <use xlink:href="#path-5"></use>
        </mask>
        <rect id="path-7" x="50" y="41" width="5" height="5"></rect>
        <mask id="mask-8" maskContentUnits="userSpaceOnUse" maskUnits="objectBoundingBox" x="0" y="0" width="5" height="5" fill="white">
            <use xlink:href="#path-7"></use>
        </mask>
        <rect id="path-9" x="43" y="41" width="5" height="5"></rect>
        <mask id="mask-10" maskContentUnits="userSpaceOnUse" maskUnits="objectBoundingBox" x="0" y="0" width="5" height="5" fill="white">
            <use xlink:href="#path-9"></use>
        </mask>
    </defs>
    <g id="Page-1" stroke="none" stroke-width="1" fill="none" fill-rule="evenodd">
        <g id="Icons" transform="translate(-296.000000, -172.000000)" stroke="#000000" stroke-width="2" fill="#FFFFFF">
            <g id="computer" transform="translate(296.000000, 172.000000)">
                <use id="Combined-Shape" mask="url(#mask-2)" transform="translate(31.000000, 30.000000) scale(1, -1) rotate(-180.000000) translate(-31.000000, -30.000000) " xlink:href="#path-1"></use>
                <use id="Combined-Shape" mask="url(#mask-4)" transform="translate(31.000000, 22.000000) scale(1, -1) rotate(-180.000000) translate(-31.000000, -22.000000) " xlink:href="#path-3"></use>
                <use id="Combined-Shape" mask="url(#mask-6)" transform="translate(31.229777, 52.812500) scale(1, -1) rotate(-180.000000) translate(-31.229777, -52.812500) " xlink:href="#path-5"></use>
                <use id="Rectangle" mask="url(#mask-8)" xlink:href="#path-7"></use>
                <use id="Rectangle" mask="url(#mask-10)" xlink:href="#path-9"></use>
            </g>
        </g>
    </g>
</svg>