<?xml version="1.0" encoding="UTF-8" standalone="no"?>
<svg width="35px" height="35px" viewBox="0 0 35 35" version="1.1" xmlns="http://www.w3.org/2000/svg" xmlns:xlink="http://www.w3.org/1999/xlink">
    <!-- Generator: Sketch 40.3 (33839) - http://www.bohemiancoding.com/sketch -->
    <title>resize</title>
    <desc>Created with Sketch.</desc>
    <defs></defs>
    <g id="Page-1" stroke="none" stroke-width="1" fill="none" fill-rule="evenodd">
        <g id="Icons" transform="translate(-118.000000, -199.000000)" fill="#FFFFFF">
            <polygon id="resize" points="133.730033 210.677979 133.816976 210.591035 129.349645 206.123705 133.741487 201.731863 131.79211 199.782486 119.569346 199.171833 118.010846 200.730334 118.357081 213.217514 120.306458 215.166892 124.962718 210.510632 129.430048 214.977963 129.494629 214.913382 129.494629 218.086618 129.430048 218.022037 124.962718 222.489368 120.306458 217.833108 118.357081 219.782486 118.010846 232.269666 119.569346 233.828167 131.79211 233.217514 133.741487 231.268137 129.349645 226.876295 133.540394 222.685547 136.608797 222.685547 140.799545 226.876295 136.407703 231.268137 138.357081 233.217514 150.579844 233.828167 152.138345 232.269666 151.79211 219.782486 149.842732 217.833108 145.186473 222.489368 141.132813 218.435707 141.132813 214.564293 145.186473 210.510632 149.842732 215.166892 151.79211 213.217514 152.138345 200.730334 150.579844 199.171833 138.357081 199.782486 136.407703 201.731863 140.799545 206.123705 136.332215 210.591035 136.419158 210.677979"></polygon>
        </g>
    </g>
</svg>