<?xml version="1.0" encoding="UTF-8" standalone="no"?>
<svg width="60px" height="61px" viewBox="0 0 60 61" version="1.1" xmlns="http://www.w3.org/2000/svg" xmlns:xlink="http://www.w3.org/1999/xlink">
    <!-- Generator: Sketch 40.3 (33839) - http://www.bohemiancoding.com/sketch -->
    <title>text</title>
    <desc>Created with Sketch.</desc>
    <defs>
        <polygon id="path-1" points="0 60 60 60 60 0 0 0"></polygon>
        <mask id="mask-2" maskContentUnits="userSpaceOnUse" maskUnits="objectBoundingBox" x="0" y="0" width="60" height="60" fill="white">
            <use xlink:href="#path-1"></use>
        </mask>
        <rect id="path-3" x="0" y="47.0251784" width="60" height="6.57464327"></rect>
        <mask id="mask-4" maskContentUnits="userSpaceOnUse" maskUnits="objectBoundingBox" x="0" y="0" width="60" height="6.57464327" fill="white">
            <use xlink:href="#path-3"></use>
        </mask>
        <rect id="path-5" x="0" y="36.0251784" width="60" height="6.57464327"></rect>
        <mask id="mask-6" maskContentUnits="userSpaceOnUse" maskUnits="objectBoundingBox" x="0" y="0" width="60" height="6.57464327" fill="white">
            <use xlink:href="#path-5"></use>
        </mask>
        <rect id="path-7" x="0" y="26.0251784" width="60" height="6.57464327"></rect>
        <mask id="mask-8" maskContentUnits="userSpaceOnUse" maskUnits="objectBoundingBox" x="0" y="0" width="60" height="6.57464327" fill="white">
            <use xlink:href="#path-7"></use>
        </mask>
        <rect id="path-9" x="0" y="15.0251784" width="60" height="6.57464327"></rect>
        <mask id="mask-10" maskContentUnits="userSpaceOnUse" maskUnits="objectBoundingBox" x="0" y="0" width="60" height="6.57464327" fill="white">
            <use xlink:href="#path-9"></use>
        </mask>
        <rect id="path-11" x="0" y="0.19921875" width="9.52539062" height="59.8886719"></rect>
        <mask id="mask-12" maskContentUnits="userSpaceOnUse" maskUnits="objectBoundingBox" x="0" y="0" width="9.52539062" height="59.8886719" fill="white">
            <use xlink:href="#path-11"></use>
        </mask>
    </defs>
    <g id="Page-1" stroke="none" stroke-width="1" fill="none" fill-rule="evenodd">
        <g id="Icons" transform="translate(-218.000000, -272.000000)" stroke="#000000">
            <g id="text" transform="translate(218.000000, 272.000000)">
                <g id="Group" stroke-width="2" fill="#FFFFFF">
                    <use id="Combined-Shape" mask="url(#mask-2)" xlink:href="#path-1"></use>
                </g>
                <use id="Rectangle" mask="url(#mask-4)" stroke-width="2" fill="#FFFFFF" xlink:href="#path-3"></use>
                <use id="Rectangle" mask="url(#mask-6)" stroke-width="2" fill="#FFFFFF" xlink:href="#path-5"></use>
                <use id="Rectangle" mask="url(#mask-8)" stroke-width="2" fill="#FFFFFF" xlink:href="#path-7"></use>
                <use id="Rectangle" mask="url(#mask-10)" stroke-width="2" fill="#FFFFFF" xlink:href="#path-9"></use>
                <use id="Rectangle" mask="url(#mask-12)" stroke-width="2" xlink:href="#path-11"></use>
                <g id="x" transform="translate(11.000000, 7.000000)" stroke-linecap="square" stroke-width="0.5">
                    <polygon id="Combined-Shape" points="0.264271637 0.800812163 0 0.537311551 0.518401199 0 0.782672836 0.263500612 3.5 2.97289985 6.21732716 0.263500612 6.4815988 0 7 0.537311551 6.73572836 0.800812163 4.02864248 3.5 6.73572836 6.19918784 7 6.46268845 6.4815988 7 6.21732716 6.73649939 3.5 4.02710015 0.782672836 6.73649939 0.518401199 7 0 6.46268845 0.264271637 6.19918784 2.97135752 3.5"></polygon>
                    <polygon id="Combined-Shape" points="10.2642716 0.800812163 10 0.537311551 10.5184012 0 10.7826728 0.263500612 13.5 2.97289985 16.2173272 0.263500612 16.4815988 0 17 0.537311551 16.7357284 0.800812163 14.0286425 3.5 16.7357284 6.19918784 17 6.46268845 16.4815988 7 16.2173272 6.73649939 13.5 4.02710015 10.7826728 6.73649939 10.5184012 7 10 6.46268845 10.2642716 6.19918784 12.9713575 3.5"></polygon>
                    <polygon id="Combined-Shape" points="20.2642716 0.800812163 20 0.537311551 20.5184012 0 20.7826728 0.263500612 23.5 2.97289985 26.2173272 0.263500612 26.4815988 0 27 0.537311551 26.7357284 0.800812163 24.0286425 3.5 26.7357284 6.19918784 27 6.46268845 26.4815988 7 26.2173272 6.73649939 23.5 4.02710015 20.7826728 6.73649939 20.5184012 7 20 6.46268845 20.2642716 6.19918784 22.9713575 3.5"></polygon>
                    <polygon id="Combined-Shape" points="30.2642716 0.800812163 30 0.537311551 30.5184012 0 30.7826728 0.263500612 33.5 2.97289985 36.2173272 0.263500612 36.4815988 0 37 0.537311551 36.7357284 0.800812163 34.0286425 3.5 36.7357284 6.19918784 37 6.46268845 36.4815988 7 36.2173272 6.73649939 33.5 4.02710015 30.7826728 6.73649939 30.5184012 7 30 6.46268845 30.2642716 6.19918784 32.9713575 3.5"></polygon>
                    <polygon id="Combined-Shape" points="11.1132593 15.3432052 11 15.2302764 11.2221719 15 11.3354312 15.1129288 12.5 16.2740999 13.6645688 15.1129288 13.7778281 15 14 15.2302764 13.8867407 15.3432052 12.7265611 16.5 13.8867407 17.6567948 14 17.7697236 13.7778281 18 13.6645688 17.8870712 12.5 16.7259001 11.3354312 17.8870712 11.2221719 18 11 17.7697236 11.1132593 17.6567948 12.2734389 16.5"></polygon>
                    <polygon id="Combined-Shape" points="21.1132593 15.3432052 21 15.2302764 21.2221719 15 21.3354312 15.1129288 22.5 16.2740999 23.6645688 15.1129288 23.7778281 15 24 15.2302764 23.8867407 15.3432052 22.7265611 16.5 23.8867407 17.6567948 24 17.7697236 23.7778281 18 23.6645688 17.8870712 22.5 16.7259001 21.3354312 17.8870712 21.2221719 18 21 17.7697236 21.1132593 17.6567948 22.2734389 16.5"></polygon>
                    <polygon id="Combined-Shape" points="31.1132593 15.3432052 31 15.2302764 31.2221719 15 31.3354312 15.1129288 32.5 16.2740999 33.6645688 15.1129288 33.7778281 15 34 15.2302764 33.8867407 15.3432052 32.7265611 16.5 33.8867407 17.6567948 34 17.7697236 33.7778281 18 33.6645688 17.8870712 32.5 16.7259001 31.3354312 17.8870712 31.2221719 18 31 17.7697236 31.1132593 17.6567948 32.2734389 16.5"></polygon>
                    <polygon id="Combined-Shape" points="1.11325927 21.3432052 1 21.2302764 1.22217194 21 1.33543122 21.1129288 2.5 22.2740999 3.66456878 21.1129288 3.77782806 21 4 21.2302764 3.88674073 21.3432052 2.72656106 22.5 3.88674073 23.6567948 4 23.7697236 3.77782806 24 3.66456878 23.8870712 2.5 22.7259001 1.33543122 23.8870712 1.22217194 24 1 23.7697236 1.11325927 23.6567948 2.27343894 22.5"></polygon>
                    <polygon id="Combined-Shape" points="11.1132593 21.3432052 11 21.2302764 11.2221719 21 11.3354312 21.1129288 12.5 22.2740999 13.6645688 21.1129288 13.7778281 21 14 21.2302764 13.8867407 21.3432052 12.7265611 22.5 13.8867407 23.6567948 14 23.7697236 13.7778281 24 13.6645688 23.8870712 12.5 22.7259001 11.3354312 23.8870712 11.2221719 24 11 23.7697236 11.1132593 23.6567948 12.2734389 22.5"></polygon>
                    <polygon id="Combined-Shape" points="21.1132593 21.3432052 21 21.2302764 21.2221719 21 21.3354312 21.1129288 22.5 22.2740999 23.6645688 21.1129288 23.7778281 21 24 21.2302764 23.8867407 21.3432052 22.7265611 22.5 23.8867407 23.6567948 24 23.7697236 23.7778281 24 23.6645688 23.8870712 22.5 22.7259001 21.3354312 23.8870712 21.2221719 24 21 23.7697236 21.1132593 23.6567948 22.2734389 22.5"></polygon>
                    <polygon id="Combined-Shape" points="31.1132593 21.3432052 31 21.2302764 31.2221719 21 31.3354312 21.1129288 32.5 22.2740999 33.6645688 21.1129288 33.7778281 21 34 21.2302764 33.8867407 21.3432052 32.7265611 22.5 33.8867407 23.6567948 34 23.7697236 33.7778281 24 33.6645688 23.8870712 32.5 22.7259001 31.3354312 23.8870712 31.2221719 24 31 23.7697236 31.1132593 23.6567948 32.2734389 22.5"></polygon>
                    <polygon id="Combined-Shape" points="1.11325927 26.3432052 1 26.2302764 1.22217194 26 1.33543122 26.1129288 2.5 27.2740999 3.66456878 26.1129288 3.77782806 26 4 26.2302764 3.88674073 26.3432052 2.72656106 27.5 3.88674073 28.6567948 4 28.7697236 3.77782806 29 3.66456878 28.8870712 2.5 27.7259001 1.33543122 28.8870712 1.22217194 29 1 28.7697236 1.11325927 28.6567948 2.27343894 27.5"></polygon>
                    <polygon id="Combined-Shape" points="11.1132593 26.3432052 11 26.2302764 11.2221719 26 11.3354312 26.1129288 12.5 27.2740999 13.6645688 26.1129288 13.7778281 26 14 26.2302764 13.8867407 26.3432052 12.7265611 27.5 13.8867407 28.6567948 14 28.7697236 13.7778281 29 13.6645688 28.8870712 12.5 27.7259001 11.3354312 28.8870712 11.2221719 29 11 28.7697236 11.1132593 28.6567948 12.2734389 27.5"></polygon>
                    <polygon id="Combined-Shape" points="21.1132593 26.3432052 21 26.2302764 21.2221719 26 21.3354312 26.1129288 22.5 27.2740999 23.6645688 26.1129288 23.7778281 26 24 26.2302764 23.8867407 26.3432052 22.7265611 27.5 23.8867407 28.6567948 24 28.7697236 23.7778281 29 23.6645688 28.8870712 22.5 27.7259001 21.3354312 28.8870712 21.2221719 29 21 28.7697236 21.1132593 28.6567948 22.2734389 27.5"></polygon>
                    <polygon id="Combined-Shape" points="31.1132593 26.3432052 31 26.2302764 31.2221719 26 31.3354312 26.1129288 32.5 27.2740999 33.6645688 26.1129288 33.7778281 26 34 26.2302764 33.8867407 26.3432052 32.7265611 27.5 33.8867407 28.6567948 34 28.7697236 33.7778281 29 33.6645688 28.8870712 32.5 27.7259001 31.3354312 28.8870712 31.2221719 29 31 28.7697236 31.1132593 28.6567948 32.2734389 27.5"></polygon>
                    <polygon id="Combined-Shape" points="1.11325927 31.3432052 1 31.2302764 1.22217194 31 1.33543122 31.1129288 2.5 32.2740999 3.66456878 31.1129288 3.77782806 31 4 31.2302764 3.88674073 31.3432052 2.72656106 32.5 3.88674073 33.6567948 4 33.7697236 3.77782806 34 3.66456878 33.8870712 2.5 32.7259001 1.33543122 33.8870712 1.22217194 34 1 33.7697236 1.11325927 33.6567948 2.27343894 32.5"></polygon>
                    <polygon id="Combined-Shape" points="11.1132593 31.3432052 11 31.2302764 11.2221719 31 11.3354312 31.1129288 12.5 32.2740999 13.6645688 31.1129288 13.7778281 31 14 31.2302764 13.8867407 31.3432052 12.7265611 32.5 13.8867407 33.6567948 14 33.7697236 13.7778281 34 13.6645688 33.8870712 12.5 32.7259001 11.3354312 33.8870712 11.2221719 34 11 33.7697236 11.1132593 33.6567948 12.2734389 32.5"></polygon>
                    <polygon id="Combined-Shape" points="21.1132593 31.3432052 21 31.2302764 21.2221719 31 21.3354312 31.1129288 22.5 32.2740999 23.6645688 31.1129288 23.7778281 31 24 31.2302764 23.8867407 31.3432052 22.7265611 32.5 23.8867407 33.6567948 24 33.7697236 23.7778281 34 23.6645688 33.8870712 22.5 32.7259001 21.3354312 33.8870712 21.2221719 34 21 33.7697236 21.1132593 33.6567948 22.2734389 32.5"></polygon>
                </g>
            </g>
        </g>
    </g>
</svg>