<?xml version="1.0" encoding="UTF-8" standalone="no"?>
<svg width="67px" height="64px" viewBox="0 0 67 64" version="1.1" xmlns="http://www.w3.org/2000/svg" xmlns:xlink="http://www.w3.org/1999/xlink">
    <!-- Generator: Sketch 40.3 (33839) - http://www.bohemiancoding.com/sketch -->
    <title>Trasb</title>
    <desc>Created with Sketch.</desc>
    <defs>
        <rect id="path-1" x="20" y="0" width="26.459554" height="6.625"></rect>
        <mask id="mask-2" maskContentUnits="userSpaceOnUse" maskUnits="objectBoundingBox" x="0" y="0" width="26.459554" height="6.625" fill="white">
            <use xlink:href="#path-1"></use>
        </mask>
        <polygon id="path-3" points="0 60 60 60 60 0 0 0"></polygon>
        <mask id="mask-4" maskContentUnits="userSpaceOnUse" maskUnits="objectBoundingBox" x="0" y="0" width="60" height="60" fill="white">
            <use xlink:href="#path-3"></use>
        </mask>
        <polygon id="path-5" points="0 12 0 20.625 66.459554 20.625 66.459554 12"></polygon>
        <mask id="mask-6" maskContentUnits="userSpaceOnUse" maskUnits="objectBoundingBox" x="0" y="0" width="66.459554" height="8.625" fill="white">
            <use xlink:href="#path-5"></use>
        </mask>
        <polygon id="path-7" points="2 3 2 10.625 64.459554 10.625 64.459554 3"></polygon>
        <mask id="mask-8" maskContentUnits="userSpaceOnUse" maskUnits="objectBoundingBox" x="0" y="0" width="62.459554" height="7.625" fill="white">
            <use xlink:href="#path-7"></use>
        </mask>
        <polygon id="path-9" points="56.459554 25 50 25 50 58.625 56.459554 58.625"></polygon>
        <mask id="mask-10" maskContentUnits="userSpaceOnUse" maskUnits="objectBoundingBox" x="0" y="0" width="6.45955404" height="33.625" fill="white">
            <use xlink:href="#path-9"></use>
        </mask>
        <polygon id="path-11" points="46.459554 25 40 25 40 58.625 46.459554 58.625"></polygon>
        <mask id="mask-12" maskContentUnits="userSpaceOnUse" maskUnits="objectBoundingBox" x="0" y="0" width="6.45955404" height="33.625" fill="white">
            <use xlink:href="#path-11"></use>
        </mask>
        <polygon id="path-13" points="36.459554 25 30 25 30 58.625 36.459554 58.625"></polygon>
        <mask id="mask-14" maskContentUnits="userSpaceOnUse" maskUnits="objectBoundingBox" x="0" y="0" width="6.45955404" height="33.625" fill="white">
            <use xlink:href="#path-13"></use>
        </mask>
        <polygon id="path-15" points="26.459554 25 20 25 20 58.625 26.459554 58.625"></polygon>
        <mask id="mask-16" maskContentUnits="userSpaceOnUse" maskUnits="objectBoundingBox" x="0" y="0" width="6.45955404" height="33.625" fill="white">
            <use xlink:href="#path-15"></use>
        </mask>
        <polygon id="path-17" points="16.459554 25 10 25 10 58.625 16.459554 58.625"></polygon>
        <mask id="mask-18" maskContentUnits="userSpaceOnUse" maskUnits="objectBoundingBox" x="0" y="0" width="6.45955404" height="33.625" fill="white">
            <use xlink:href="#path-17"></use>
        </mask>
    </defs>
    <g id="Page-1" stroke="none" stroke-width="1" fill="none" fill-rule="evenodd">
        <g id="Icons" transform="translate(-284.000000, -68.000000)" stroke="#000000" stroke-width="2" fill="#FFFFFF">
            <g id="Trasb" transform="translate(284.000000, 68.000000)">
                <use id="Rectangle" mask="url(#mask-2)" xlink:href="#path-1"></use>
                <g id="Group" transform="translate(3.000000, 4.000000)">
                    <use id="Combined-Shape" mask="url(#mask-4)" xlink:href="#path-3"></use>
                </g>
                <use id="Combined-Shape" mask="url(#mask-6)" xlink:href="#path-5"></use>
                <use id="Combined-Shape" mask="url(#mask-8)" xlink:href="#path-7"></use>
                <use id="Combined-Shape" mask="url(#mask-10)" xlink:href="#path-9"></use>
                <use id="Combined-Shape" mask="url(#mask-12)" xlink:href="#path-11"></use>
                <use id="Combined-Shape" mask="url(#mask-14)" xlink:href="#path-13"></use>
                <use id="Combined-Shape" mask="url(#mask-16)" xlink:href="#path-15"></use>
                <use id="Combined-Shape" mask="url(#mask-18)" xlink:href="#path-17"></use>
            </g>
        </g>
    </g>
</svg>